HIERARCHY
ROOT root
{
	OFFSET	0	13.1	24.9
	CHANNELS 6  Xposition Yposition Zposition Xrotation Yrotation Zrotation
	JOINT spine_1
	{
		OFFSET	0	9.99999	0
		CHANNELS 3  Xrotation Yrotation Zrotation
		JOINT spine_2
		{
			OFFSET	0	112	-10
			CHANNELS 3  Xrotation Yrotation Zrotation
			JOINT spine_3
			{
				OFFSET	0	206.5	19.3
				CHANNELS 3  Xrotation Yrotation Zrotation
				JOINT spine_4
				{
					OFFSET	0	110.4	14.6
					CHANNELS 3  Xrotation Yrotation Zrotation
					JOINT neck_1
					{
						OFFSET	0	71.8	-50.3
						CHANNELS 3  Xrotation Yrotation Zrotation
						JOINT neck_2
						{
							OFFSET	0	86.2	-25.8
							CHANNELS 3  Xrotation Yrotation Zrotation
							JOINT head_ee
							{
								OFFSET	0	179.8	-8.7
								CHANNELS 3  Xrotation Yrotation Zrotation
								End Site
								{
									OFFSET	1	0	0
								}
							}
						}
					}
					JOINT left_clavicle
					{
						OFFSET	-43.2	22.4	-70.8
						CHANNELS 3  Xrotation Yrotation Zrotation
						JOINT left_shoulder
						{
							OFFSET	-93.9	-5.79999	48.7
							CHANNELS 3  Xrotation Yrotation Zrotation
							JOINT left_elbow
							{
								OFFSET	-291.4	-30.8	15.2
								CHANNELS 3  Xrotation Yrotation Zrotation
								JOINT left_lowarm_twist
								{
									OFFSET	-110.7	-3.89999	13.6
									CHANNELS 3  Xrotation Yrotation Zrotation
									JOINT left_hand
									{
										OFFSET	-110.7	-3.89999	13.6
										CHANNELS 3  Xrotation Yrotation Zrotation
										JOINT left_ee
										{
											OFFSET	-80.8	-5.10001	12.1
											CHANNELS 3  Xrotation Yrotation Zrotation
											End Site
											{
												OFFSET	1	0	0
											}
										}
									}
								}
							}
						}
					}
					JOINT right_clavicle
					{
						OFFSET	43.2	22.4	-70.8
						CHANNELS 3  Xrotation Yrotation Zrotation
						JOINT right_shoulder
						{
							OFFSET	93.9	-5.79999	48.7
							CHANNELS 3  Xrotation Yrotation Zrotation
							JOINT right_elbow
							{
								OFFSET	291.4	-30.8	15.2
								CHANNELS 3  Xrotation Yrotation Zrotation
								JOINT right_lowarm_twist
								{
									OFFSET	110.7	-3.89999	13.6
									CHANNELS 3  Xrotation Yrotation Zrotation
									JOINT right_hand
									{
										OFFSET	110.7	-3.89999	13.6
										CHANNELS 3  Xrotation Yrotation Zrotation
										JOINT right_ee
										{
											OFFSET	80.8	-5.10001	12.1
											CHANNELS 3  Xrotation Yrotation Zrotation
											End Site
											{
												OFFSET	1	0	0
											}
										}
									}
								}
							}
						}
					}
				}
			}
		}
	}
	JOINT left_hip
	{
		OFFSET	-82.8	-127.5	0.300001
		CHANNELS 3  Xrotation Yrotation Zrotation
		JOINT left_knee
		{
			OFFSET	-28.2	-396.7	2.2
			CHANNELS 3  Xrotation Yrotation Zrotation
			JOINT left_ankle
			{
				OFFSET	-11.7	-411.3	35.4
				CHANNELS 3  Xrotation Yrotation Zrotation
				JOINT left_toes
				{
					OFFSET	0	-60	-88.6
					CHANNELS 3  Xrotation Yrotation Zrotation
					JOINT left_foot_ee
					{
						OFFSET	-22.5	-16.5	-42.2
						CHANNELS 3  Xrotation Yrotation Zrotation
						End Site
						{
							OFFSET	1	0	0
						}
					}
				}
			}
		}
	}
	JOINT right_hip
	{
		OFFSET	82.8	-127.5	0.300001
		CHANNELS 3  Xrotation Yrotation Zrotation
		JOINT right_knee
		{
			OFFSET	28.2	-396.7	2.2
			CHANNELS 3  Xrotation Yrotation Zrotation
			JOINT right_ankle
			{
				OFFSET	11.7	-411.3	35.4
				CHANNELS 3  Xrotation Yrotation Zrotation
				JOINT right_toes
				{
					OFFSET	0	-60	-88.6
					CHANNELS 3  Xrotation Yrotation Zrotation
					JOINT right_foot_ee
					{
						OFFSET	22.5	-16.5	-42.2
						CHANNELS 3  Xrotation Yrotation Zrotation
						End Site
						{
							OFFSET	1	0	0
						}
					}
				}
			}
		}
	}
}
MOTION
Frames: 6
Frame Time: 0.02
3499.00914031 749.44 -1464.84050507 -1.63976343679 63.3769024621 -6.59076518276 1.54831 1.12206 4.47717 1.55907 0.835198 4.53932 1.6269 -0.00557198 4.61535 1.59792 0.722638 4.55855 -15.6201 8.85914 -0.230881 -15.9014 17.1012 2.86854 -0.0 0.0 -0.0 -6.29303 23.29 -6.02446 -9.11322 9.38246 74.6862 1.35551 -33.8787 0.412869 -14.7751 -0.748139 1.72952 -0.0563912 4.35744 1.45328 -0.0 0.0 -0.0 13.3775 27.4626 -26.3682 1.54181 13.9282 -68.922 0.477759 13.3153 -0.0557659 33.4595 0.053464 4.21376 0.33708 -22.2117 -10.896 0.0 0.0 0.0 5.0859 25.3897 4.64444 -13.8451 0.318176 2.09574 40.3179 6.89983 -4.88809 -26.2329 0.0 0.0 -0.0 0.0 -0.0 8.84606 31.6748 2.05685 -41.3049 0.551862 -6.17997 40.5197 6.60987 5.00219 -24.7542 0.0 0.0 0.0 0.0 0.0 
3498.67502393 749.44 -1467.85261174 -1.52016746337 61.094586754 -6.72589464008 1.54831 1.12206 4.47717 1.55907 0.835198 4.53932 1.6269 -0.00557198 4.61535 1.59792 0.722638 4.55855 -15.6201 8.85914 -0.230881 -15.9014 17.1012 2.86854 -0.0 0.0 -0.0 -6.29303 23.29 -6.02446 -9.11322 9.38246 74.6862 1.35551 -33.8787 0.412869 -14.7751 -0.748139 1.72952 -0.0563912 4.35744 1.45328 -0.0 0.0 -0.0 13.3775 27.4626 -26.3682 1.54181 13.9282 -68.922 0.477759 13.3153 -0.0557659 33.4595 0.053464 4.21376 0.33708 -22.2117 -10.896 0.0 0.0 0.0 5.0859 25.3897 4.64444 -13.8451 0.318176 2.09574 40.3179 6.89983 -4.88809 -26.2329 0.0 0.0 -0.0 0.0 -0.0 8.84606 31.6748 2.05685 -41.3049 0.551862 -6.17997 40.5197 6.60987 5.00219 -24.7542 0.0 0.0 0.0 0.0 0.0 
3498.60796555 749.44 -1468.63612595 -1.49230639702 60.5023852142 -6.75781169926 1.54831 1.12206 4.47717 1.55907 0.835198 4.53932 1.6269 -0.00557198 4.61535 1.59792 0.722638 4.55855 -15.6201 8.85914 -0.230881 -15.9014 17.1012 2.86854 -0.0 0.0 -0.0 -6.29303 23.29 -6.02446 -9.11322 9.38246 74.6862 1.35551 -33.8787 0.412869 -14.7751 -0.748139 1.72952 -0.0563912 4.35744 1.45328 -0.0 0.0 -0.0 13.3775 27.4626 -26.3682 1.54181 13.9282 -68.922 0.477759 13.3153 -0.0557659 33.4595 0.053464 4.21376 0.33708 -22.2117 -10.896 0.0 0.0 0.0 5.0859 25.3897 4.64444 -13.8451 0.318176 2.09574 40.3179 6.89983 -4.88809 -26.2329 0.0 0.0 -0.0 0.0 -0.0 8.84606 31.6748 2.05685 -41.3049 0.551862 -6.17997 40.5197 6.60987 5.00219 -24.7542 0.0 0.0 0.0 0.0 0.0 
3493.23571016 739.64 -1472.72621549 -0.372902950413 64.2899192163 -7.99665392303 1.34643 1.08358 4.55842 1.35763 0.791635 4.61795 1.42376 -0.0795392 4.6845 1.39376 0.660478 4.63849 -16.3189 7.16829 -1.33714 -16.532 14.5101 1.31473 -0.0 0.0 -0.0 -5.9169 23.196 -5.52048 -10.5864 8.74621 72.9586 1.10654 -28.7284 0.283382 -14.112 -0.705139 1.65635 -0.0268779 6.44304 2.51257 -0.0 0.0 -0.0 13.1686 27.1495 -25.9258 2.89952 14.0304 -68.2826 0.574396 15.8833 -0.0801302 34.3685 0.089198 4.32432 0.325088 -21.3604 -10.5215 0.0 0.0 0.0 6.96197 27.2697 3.31547 -14.7995 0.321325 2.24213 37.4684 9.22875 -4.64277 -25.307 0.0 0.0 -0.0 0.0 -0.0 6.89435 30.2012 2.9798 -40.5842 0.504354 -6.07987 39.9991 6.20208 4.95067 -22.1138 0.0 0.0 0.0 0.0 0.0 
3481.7570438 747.454 -1463.25051117 1.03450544186 67.4879909729 -10.1632859659 1.26553 1.07027 4.67425 1.27735 0.771009 4.7327 1.34369 -0.127929 4.79325 1.3122 0.629809 4.7535 -17.6438 5.83453 -0.739777 -17.8013 11.6215 1.52396 -0.0 0.0 -0.0 -5.3023 23.1036 -4.67984 -11.5839 8.31112 72.4009 0.853389 -22.9157 0.172974 -13.8931 -0.691128 1.63209 0.031512 10.63 4.59922 -0.0 0.0 -0.0 13.2227 26.9135 -26.0806 4.00388 14.3298 -68.0114 0.702958 19.1994 -0.118894 34.9962 0.114897 4.40034 0.303903 -19.8604 -9.85216 0.0 0.0 0.0 9.19447 29.0188 1.63498 -15.6136 0.322083 2.36703 35.5869 12.3928 -4.48722 -25.0584 0.0 0.0 -0.0 0.0 -0.0 2.48674 28.7563 4.98938 -38.1636 0.35409 -5.73948 40.0072 5.97332 4.94754 -18.21 0.0 0.0 0.0 0.0 0.0 
3469.21101041 746.929 -1458.80740975 2.18658274453 69.906251515 -11.3205651798 1.16415 1.1277 4.6944 1.17603 0.827043 4.75645 1.2478 -0.085233 4.8269 1.21594 0.67727 4.78002 -18.5887 4.88899 -0.306319 -18.7056 9.57407 1.64517 -0.0 0.0 -0.0 -4.85692 23.0565 -4.06621 -12.295 8.01039 72.0495 0.685845 -18.7651 0.113328 -13.7397 -0.681369 1.61506 0.0725966 13.6007 6.04436 -0.0 0.0 -0.0 13.5575 26.8571 -26.8635 5.39346 14.7324 -68.0891 0.806425 21.7756 -0.155117 35.4534 0.13414 4.45553 0.295859 -18.7664 -9.4021 0.0 0.0 0.0 11.7932 30.2597 0.0224753 -16.1997 0.321531 2.45695 34.1567 14.6611 -4.36912 -24.9119 0.0 0.0 -0.0 0.0 -0.0 -1.3014 27.5591 6.63236 -36.2904 0.247785 -5.47197 40.0551 5.81857 4.94911 -15.4453 0.0 0.0 0.0 0.0 0.0 
